# xmcd
#
# Track frame offsets: 
#        150
#        18473
#        39652
#        55305
#        78158
#        93088
#        114111
#        132354
#        146523
#        166960
#        189180
#        207105
#
# Disc length: 2996 seconds
#
# Revision: 0
# Processed by: cddbd v1.5.2PL0 Copyright (c) Steve Scherf et al.
# Submitted via: ExactAudioCopy v1.3
#
DISCID=910bb20c
DTITLE=Betty Fox Band - Too Far Gone
DYEAR=2012
DGENRE=Blues Soul, Funky Blues
TTITLE0=Take Your Time
TTITLE1=Dirty Soul
TTITLE2=You're Losing Me
TTITLE3=Down
TTITLE4=Goodbye (Feat. TC Carr)
TTITLE5=No Other Man (Feat. Selwyn Birchwood)
TTITLE6=I Got A Feelin'
TTITLE7=Evidence
TTITLE8=Maybe Next Lifetime
TTITLE9=Story Not To Tell
TTITLE10=Satisfied
TTITLE11=Too Far Gone (Explicit)
EXTD=
EXTT0=
EXTT1=
EXTT2=
EXTT3=
EXTT4=
EXTT5=
EXTT6=
EXTT7=
EXTT8=
EXTT9=
EXTT10=
EXTT11=
PLAYORDER=
